<svg width="521" height="77" viewBox="0 0 521 77" fill="none" xmlns="http://www.w3.org/2000/svg">
<path d="M49.2804 19.6885C48.6138 19.6885 47.9473 19.6885 47.3274 19.7619C48.1705 23.5401 48.0871 27.4665 47.0841 31.2053C46.0812 34.9442 44.1887 38.3842 41.5684 41.2311C38.9482 44.0781 35.6782 46.2473 32.038 47.5532C28.3979 48.8592 24.496 49.263 20.666 48.7301C20.7436 54.379 22.4876 59.8789 25.6789 64.5381C28.8701 69.1973 33.3661 72.8078 38.6014 74.9156C43.8368 77.0235 49.5777 77.5345 55.1024 76.3845C60.627 75.2345 65.6888 72.4748 69.651 68.4524C73.6133 64.4301 76.2992 59.3246 77.3711 53.778C78.4429 48.2314 77.8528 42.4914 75.675 37.2797C73.4971 32.068 69.8288 27.6173 65.1312 24.4873C60.4336 21.3573 54.9165 19.6877 49.2737 19.6885H49.2804Z" fill="#1E56FF"/>
<path d="M47.3232 19.7426C46.3714 15.4695 44.2691 11.5387 41.2444 8.37683C38.2196 5.21492 34.3879 2.94254 30.1648 1.80614C25.9416 0.669738 21.4883 0.712719 17.2878 1.9304C13.0874 3.14809 9.30009 5.49398 6.33679 8.71367C3.3735 11.9334 1.34731 15.9039 0.477984 20.1947C-0.391338 24.4855 -0.0706143 28.9326 1.40539 33.0538C2.8814 37.1751 5.45634 40.813 8.85091 43.5731C12.2455 46.3332 16.3301 48.11 20.6617 48.7109C20.6617 48.5774 20.6617 48.4506 20.6617 48.3172C20.6618 41.0584 23.4148 34.0705 28.3641 28.766C33.3133 23.4616 40.0897 20.2365 47.3232 19.7426V19.7426Z" fill="#FF3D8A"/>
<path d="M47.9007 24.986C47.9006 23.2307 47.7084 21.4809 47.3274 19.7676C40.094 20.2614 33.3176 23.4865 28.3683 28.7909C23.4191 34.0954 20.6661 41.0833 20.666 48.3421C20.666 48.4755 20.666 48.6023 20.666 48.7358C21.7527 48.8858 22.8484 48.9616 23.9454 48.9627C27.0909 48.9636 30.2058 48.344 33.1122 47.1395C36.0185 45.9349 38.6594 44.169 40.8839 41.9424C43.1084 39.7159 44.8731 37.0724 46.077 34.163C47.281 31.2536 47.9007 28.1352 47.9007 24.986Z" fill="url(#paint0_linear_614_5629)"/>
<path d="M172.278 34.7752C174.323 32.4958 175.492 29.6905 175.492 26.8267C175.492 20.8068 172.628 16.0727 163.336 16.0727H127.333V56.9844H164.738C174.031 56.9844 178.064 51.9581 178.064 45.0616C178.064 40.3275 175.785 36.9377 172.278 34.7752ZM137.854 23.6706H159.537C162.401 23.6706 164.972 23.6706 164.972 27.8787C164.972 32.1452 162.401 32.1452 159.595 32.1452H159.537H137.854V23.6706ZM162.167 48.8605H137.854V40.2106H162.167C164.972 40.2106 167.544 40.2106 167.544 44.5356C167.544 48.8605 164.972 48.8605 162.167 48.8605ZM182.183 10.2282V56.9844H192.177V10.2282H182.183ZM219.827 57.5688C234.029 57.5688 243.673 52.4257 243.673 39.8015C243.673 27.1189 234.029 21.9757 219.827 21.9757C205.566 21.9757 195.981 27.1189 195.981 39.8015C195.981 52.4257 205.566 57.5688 219.827 57.5688ZM219.827 49.2112C210.534 49.2112 205.976 46.9318 205.976 39.8015C205.976 32.6127 210.534 30.3334 219.827 30.3334C229.061 30.3334 233.62 32.6127 233.62 39.8015C233.62 46.9318 229.061 49.2112 219.827 49.2112ZM270.396 57.5688C284.598 57.5688 294.241 52.4257 294.241 39.8015C294.241 27.1189 284.598 21.9757 270.396 21.9757C256.135 21.9757 246.55 27.1189 246.55 39.8015C246.55 52.4257 256.135 57.5688 270.396 57.5688ZM270.396 49.2112C261.103 49.2112 256.544 46.9318 256.544 39.8015C256.544 32.6127 261.103 30.3334 270.396 30.3334C279.63 30.3334 284.189 32.6127 284.189 39.8015C284.189 46.9318 279.63 49.2112 270.396 49.2112ZM357.777 21.9757C349.244 21.9757 343.107 24.9564 338.665 28.2878C336.035 23.4953 331.126 21.9757 325.924 21.9757C317.391 21.9757 311.78 25.1902 308.04 28.1709V22.5602H298.046V56.9844H308.04V36.7039C310.904 33.6063 316.515 30.6256 322.301 30.6256C329.431 30.6256 330.658 34.4245 330.658 41.7302V56.9844H340.652L340.769 37.6975C340.769 37.0546 340.769 36.4701 340.711 35.8857C343.75 33.1387 348.893 30.6256 354.153 30.6256C361.284 30.6256 362.511 34.4245 362.511 41.7302V56.9844H372.505L372.622 37.6975C372.505 25.2486 365.492 21.9757 357.777 21.9757ZM400.131 21.9757C392.942 21.9757 386.046 23.2615 379.032 25.5409L382.597 32.8465C389.669 30.7425 395.163 30.3334 399.663 30.3334C404.339 30.3334 412.755 30.8594 412.755 37.4052C408.255 35.8857 402.819 34.9505 396.916 34.9505C385.987 34.9505 376.168 37.7559 376.168 46.698C376.168 54.4712 382.188 57.5688 391.832 57.5688C399.956 57.5688 406.677 55.6986 412.755 52.7179V56.9844H422.808V39.6262C422.691 26.5929 414.508 21.9757 400.131 21.9757ZM412.755 46.2889C407.612 48.5098 400.131 50.2047 394.695 50.2047C389.494 50.2047 386.162 49.9125 386.162 46.2889C386.162 42.7822 390.663 41.4964 398.144 41.4964C404.514 41.4964 409.248 42.49 412.755 43.6004V46.2889ZM460.533 22.5602L447.091 50.9645L432.362 22.5602H421.258L439.084 56.9844H444.227L437.272 71.5957H448.318L471.579 22.5602H460.533ZM470.799 44.8862C470.799 55.8739 483.073 57.5688 496.34 57.5688C509.607 57.5688 518.374 55.8739 518.374 46.172C518.374 36.9961 509.198 36.6455 495.755 35.6519C483.891 34.7752 482.079 34.4245 482.079 32.2621C482.079 30.2749 484.768 29.5736 494.236 29.5736C503.529 29.5736 507.152 30.2749 507.152 33.1387H517.205C517.205 23.6706 507.795 21.9757 494.82 21.9757C482.547 21.9757 472.027 23.6706 472.027 32.6712C472.027 40.9704 479.449 42.1393 494.587 43.016C506.685 43.7758 508.321 43.9511 508.321 46.5811C508.321 49.2696 506.568 49.971 495.755 49.971C484.592 49.971 480.793 48.5683 480.793 44.8862H470.799Z" fill="black"/>
<defs>
<linearGradient id="paint0_linear_614_5629" x1="34.2833" y1="19.7676" x2="34.2833" y2="48.9627" gradientUnits="userSpaceOnUse">
<stop stop-color="#FF9D00"/>
<stop offset="1" stop-color="#F8D695"/>
</linearGradient>
</defs>
</svg>
